<svg width="619" height="19" viewBox="0 0 619 19" fill="none" xmlns="http://www.w3.org/2000/svg">
<path d="M0.00506592 8.27118L298.495 10.7288" stroke="#FFF5D3" stroke-dasharray="6 6"/>
<path d="M309.503 15.12C308.762 15.12 308.103 14.9467 307.527 14.6C306.956 14.248 306.508 13.736 306.183 13.064C305.858 12.3867 305.695 11.56 305.695 10.584C305.695 9.64533 305.863 8.84267 306.199 8.176C306.535 7.504 306.991 6.98933 307.567 6.632C308.143 6.27467 308.788 6.096 309.503 6.096C310.266 6.096 310.932 6.27467 311.503 6.632C312.074 6.98933 312.516 7.504 312.831 8.176C313.151 8.84267 313.311 9.64533 313.311 10.584C313.311 11.5653 313.14 12.3947 312.799 13.072C312.463 13.744 312.007 14.2533 311.431 14.6C310.855 14.9467 310.212 15.12 309.503 15.12ZM309.503 13.808C310.18 13.808 310.73 13.544 311.151 13.016C311.578 12.4827 311.791 11.672 311.791 10.584C311.791 9.54933 311.583 8.76267 311.167 8.224C310.756 7.68 310.202 7.408 309.503 7.408C308.826 7.408 308.274 7.68 307.847 8.224C307.426 8.76267 307.215 9.54933 307.215 10.584C307.215 11.6347 307.426 12.4347 307.847 12.984C308.274 13.5333 308.826 13.808 309.503 13.808Z" fill="#FFF5D3"/>
<path d="M320.505 8.27118L618.995 10.7288" stroke="#FFF5D3" stroke-dasharray="6 6"/>
</svg>
