<svg width="430" height="19" viewBox="0 0 430 19" fill="none" xmlns="http://www.w3.org/2000/svg">
<path d="M82.5488 9L204 9.99998" stroke="#FFF5D3" stroke-dasharray="6 6"/>
<path d="M215.003 15.12C214.262 15.12 213.603 14.9467 213.027 14.6C212.456 14.248 212.008 13.736 211.683 13.064C211.358 12.3867 211.195 11.56 211.195 10.584C211.195 9.64533 211.363 8.84267 211.699 8.176C212.035 7.504 212.491 6.98933 213.067 6.632C213.643 6.27467 214.288 6.096 215.003 6.096C215.766 6.096 216.432 6.27467 217.003 6.632C217.574 6.98933 218.016 7.504 218.331 8.176C218.651 8.84267 218.811 9.64533 218.811 10.584C218.811 11.5653 218.64 12.3947 218.299 13.072C217.963 13.744 217.507 14.2533 216.931 14.6C216.355 14.9467 215.712 15.12 215.003 15.12ZM215.003 13.808C215.68 13.808 216.23 13.544 216.651 13.016C217.078 12.4827 217.291 11.672 217.291 10.584C217.291 9.54933 217.083 8.76267 216.667 8.224C216.256 7.68 215.702 7.408 215.003 7.408C214.326 7.408 213.774 7.68 213.347 8.224C212.926 8.76267 212.715 9.54933 212.715 10.584C212.715 11.6347 212.926 12.4347 213.347 12.984C213.774 13.5333 214.326 13.808 215.003 13.808Z" fill="#FFF5D3"/>
<path d="M226 9L347.451 9.99998" stroke="#FFF5D3" stroke-dasharray="6 6"/>
</svg>
