<svg width="36" height="11" viewBox="0 0 36 11" fill="none" xmlns="http://www.w3.org/2000/svg">
<path fill-rule="evenodd" clip-rule="evenodd" d="M22.3341 8.48429C20.2424 10.0278 17.2101 10.8486 14.5986 10.8486C10.9388 10.8486 7.64347 9.49586 5.14937 7.24401C4.95363 7.06718 5.12829 6.82578 5.36334 6.96269C8.05426 8.52809 11.3818 9.47132 14.8184 9.47132C17.1367 9.47132 19.6851 8.99008 22.0299 7.99543C22.3835 7.84555 22.68 8.22838 22.3341 8.48429Z" fill="#FFF5D3"/>
<path fill-rule="evenodd" clip-rule="evenodd" d="M23.2045 7.49013C22.937 7.14796 21.436 7.32817 20.7616 7.40888C20.5574 7.4334 20.5258 7.25481 20.7096 7.12554C21.9072 6.28489 23.8689 6.52764 24.0971 6.80916C24.3266 7.09278 24.0367 9.06 22.9148 9.99874C22.742 10.1428 22.5777 10.066 22.6547 9.87553C22.9071 9.24495 23.4724 7.83312 23.2045 7.49013Z" fill="#FFF5D3"/>
<path fill-rule="evenodd" clip-rule="evenodd" d="M20.8094 1.18491V0.367499C20.8102 0.243219 20.9033 0.160411 21.0165 0.160614L24.6789 0.160412C24.796 0.160412 24.8899 0.245583 24.8899 0.366418V1.06745C24.8889 1.18491 24.7897 1.33816 24.6142 1.58193L22.7172 4.29055C23.4214 4.2742 24.1659 4.37943 24.8063 4.7391C24.9503 4.82035 24.9889 4.94011 25.0005 5.05804V5.93002C25.0005 6.05011 24.8688 6.18912 24.7303 6.11658C23.6034 5.52638 22.1075 5.46175 20.8608 6.12401C20.7337 6.19175 20.6001 6.05484 20.6001 5.93455V5.10579C20.6001 4.97287 20.6028 4.74619 20.7366 4.5441L22.9346 1.39064H21.0207C20.9035 1.39064 20.8102 1.30703 20.8094 1.18491Z" fill="#FFF5D3"/>
<path fill-rule="evenodd" clip-rule="evenodd" d="M7.44955 6.28834H6.33536C6.22931 6.28152 6.14489 6.20209 6.13617 6.10023L6.13692 0.381753C6.13692 0.266997 6.23323 0.175949 6.35197 0.175949L7.38937 0.175679C7.49838 0.180948 7.58545 0.263012 7.592 0.367502V1.11419H7.61314C7.88358 0.392291 8.39306 0.0553844 9.0793 0.0553844C9.77608 0.0553844 10.2133 0.392291 10.5251 1.11419C10.7956 0.392291 11.4095 0.0553844 12.0644 0.0553844C12.5327 0.0553844 13.0422 0.247478 13.3543 0.68097C13.7078 1.16242 13.6353 1.86034 13.6353 2.47397L13.6342 6.08254C13.6342 6.19682 13.538 6.28834 13.4192 6.28834H12.3063C12.1942 6.28152 12.1066 6.19284 12.1066 6.08335L12.1063 3.05154C12.1063 2.81122 12.1272 2.20914 12.0749 1.98064C11.9918 1.59544 11.7423 1.48696 11.4198 1.48696C11.1491 1.48696 10.8684 1.66771 10.7539 1.95605C10.6396 2.24554 10.65 2.72625 10.65 3.05154V6.08254C10.65 6.19682 10.5539 6.28834 10.4352 6.28834H9.32205C9.21013 6.28152 9.12206 6.19284 9.12206 6.08335L9.12098 3.05154C9.12098 2.41359 9.22465 1.47535 8.43474 1.47535C7.63347 1.47535 7.66481 2.38954 7.66481 3.05154L7.66461 6.08254C7.66461 6.19682 7.56829 6.28834 7.44955 6.28834Z" fill="#FFF5D3"/>
<path fill-rule="evenodd" clip-rule="evenodd" d="M28.0531 1.22233C27.2315 1.22233 27.1795 2.34159 27.1795 3.03965C27.1795 3.73751 27.1693 5.22954 28.0429 5.22954C28.9064 5.22954 28.9478 4.02619 28.9478 3.29273C28.9478 2.81122 28.9269 2.23311 28.7813 1.77612C28.6563 1.37883 28.4066 1.22233 28.0531 1.22233ZM28.0429 0.0553858C29.6966 0.0553858 30.591 1.47535 30.591 3.28031C30.591 5.02508 29.6032 6.40918 28.0429 6.40918C26.4202 6.40918 25.5363 4.98868 25.5363 3.21985C25.5363 1.43894 26.4305 0.0553858 28.0429 0.0553858Z" fill="#FFF5D3"/>
<path fill-rule="evenodd" clip-rule="evenodd" d="M32.7355 6.28834H31.6256C31.5139 6.28152 31.4258 6.19284 31.4258 6.08335L31.4237 0.362774C31.4332 0.257745 31.5255 0.175949 31.6376 0.175949L32.6714 0.175679C32.7685 0.180407 32.8492 0.246938 32.8693 0.335554V1.21024H32.8904C33.2022 0.427886 33.6389 0.0553844 34.4088 0.0553844C34.908 0.0553844 35.3969 0.23532 35.7088 0.728994C36 1.18619 36 1.95605 36 2.50991V6.10868C35.9879 6.20972 35.8969 6.28834 35.7866 6.28834H34.6697C34.5663 6.28172 34.4832 6.20601 34.4713 6.10868V3.00351C34.4713 2.37772 34.5442 1.46326 33.7745 1.46326C33.5041 1.46326 33.2545 1.64366 33.1297 1.92019C32.9735 2.26952 32.9526 2.61804 32.9526 3.00351V6.08254C32.9508 6.19682 32.8545 6.28834 32.7355 6.28834Z" fill="#FFF5D3"/>
<path fill-rule="evenodd" clip-rule="evenodd" d="M19.0129 6.27436C18.939 6.34062 18.8329 6.34481 18.7499 6.3005C18.3797 5.99257 18.3135 5.85066 18.1111 5.55779C17.4995 6.18068 17.0665 6.36777 16.2739 6.36777C15.336 6.36777 14.6062 5.78893 14.6062 4.63117C14.6062 3.72643 15.0962 3.11145 15.7946 2.81014C16.399 2.54442 17.2433 2.4964 17.8897 2.42386V2.27904C17.8897 2.0136 17.9106 1.70067 17.7541 1.47143C17.6185 1.26643 17.3581 1.18201 17.1288 1.18201C16.7038 1.18201 16.3262 1.39936 16.2331 1.85082C16.2141 1.95132 16.1405 2.05054 16.04 2.05581L14.9597 1.93869C14.8685 1.91836 14.7672 1.84501 14.7935 1.70547C15.0418 0.395736 16.2249 0 17.285 0C17.8272 0 18.5359 0.144272 18.9633 0.554529C19.5052 1.0611 19.453 1.73654 19.453 2.47242V4.20794C19.453 4.73066 19.6699 4.95936 19.8738 5.24061C19.945 5.3422 19.9608 5.46256 19.8701 5.53692C19.6424 5.7274 19.2382 6.07889 19.0155 6.27699L19.0129 6.27436ZM17.8897 3.55757C17.8897 3.99214 17.9003 4.35363 17.6813 4.73958C17.504 5.05304 17.2224 5.24615 16.9098 5.24615C16.4824 5.24615 16.2323 4.92032 16.2323 4.43806C16.2323 3.48928 17.0837 3.31617 17.8897 3.31617V3.55757Z" fill="#FFF5D3"/>
<path fill-rule="evenodd" clip-rule="evenodd" d="M4.40639 6.27436C4.33276 6.34062 4.22618 6.34481 4.14337 6.3005C3.7729 5.99257 3.70698 5.85066 3.50489 5.55779C2.89301 6.18068 2.46006 6.36777 1.66774 6.36777C0.729521 6.36777 0 5.78893 0 4.63117C0 3.72643 0.489689 3.11145 1.18834 2.81014C1.7928 2.54442 2.63709 2.4964 3.28294 2.42386V2.27904C3.28294 2.0136 3.30435 1.70067 3.14785 1.47143C3.01202 1.26643 2.75131 1.18201 2.52233 1.18201C2.09756 1.18201 1.71945 1.39936 1.62684 1.85082C1.60732 1.95132 1.53423 2.05054 1.43319 2.05581L0.353022 1.93869C0.261993 1.91836 0.160415 1.84501 0.187061 1.70547C0.43481 0.395736 1.6184 0 2.67849 0C3.22073 0 3.92966 0.144272 4.35708 0.554529C4.89871 1.0611 4.84677 1.73654 4.84677 2.47242V4.20794C4.84677 4.73066 5.06365 4.95936 5.26702 5.24061C5.33801 5.3422 5.35415 5.46256 5.26364 5.53692C5.03596 5.7274 4.63117 6.07889 4.40902 6.27699L4.40639 6.27436ZM3.28294 3.55757C3.28294 3.99214 3.29381 4.35363 3.07457 4.73958C2.89747 5.05304 2.61595 5.24615 2.30336 5.24615C1.87615 5.24615 1.62579 4.92032 1.62579 4.43806C1.62579 3.48928 2.47749 3.31617 3.28294 3.31617V3.55757Z" fill="#FFF5D3"/>
</svg>
