<svg width="17" height="21" viewBox="0 0 17 21" fill="none" xmlns="http://www.w3.org/2000/svg">
<path fill-rule="evenodd" clip-rule="evenodd" d="M8.34962 4.57921C8.46282 4.67902 8.61382 4.7247 8.76342 4.70437C9.76452 4.51977 10.66 3.96674 11.2734 3.15437C11.8698 2.40168 12.219 1.48313 12.2734 0.524373C12.2779 0.365493 12.208 0.213613 12.0845 0.113613C11.961 0.013603 11.7979 -0.0230871 11.6434 0.0143729C10.6785 0.266333 9.81552 0.811373 9.17342 1.57437C8.56332 2.31144 8.21202 3.22835 8.17342 4.18437C8.17202 4.33531 8.23632 4.4794 8.34962 4.57921ZM15.7059 7.23989C15.1143 7.79506 14.1834 8.6686 14.1834 10.5244C14.1695 12.1813 15.0794 13.7082 16.5434 14.4844C16.7245 14.5662 16.8416 14.7457 16.8434 14.9444C16.8434 15.0144 14.7434 20.0144 12.2234 20.0144C11.6717 20.0144 11.304 19.8405 10.9013 19.6501C10.4134 19.4194 9.87392 19.1644 8.89342 19.1644C7.92702 19.1644 7.38622 19.4121 6.88849 19.6401C6.46436 19.8344 6.07157 20.0144 5.47343 20.0144C3.15343 20.0144 0.00342909 15.1544 0.00342909 10.7644C-0.0364309 9.5244 0.271879 8.2981 0.893429 7.22437C1.77003 5.7387 3.33104 4.78934 5.05343 4.69437C5.8651 4.69437 6.52954 4.93327 7.15802 5.15924C7.72202 5.36201 8.25702 5.55437 8.84342 5.55437C9.40332 5.55437 9.85512 5.37905 10.3507 5.18673C10.9529 4.9531 11.6197 4.69437 12.6234 4.69437C14.4534 4.69437 16.1834 6.01437 16.1834 6.60437C16.1834 6.79184 15.9815 6.98133 15.7059 7.23989Z" fill="#FFF5D3"/>
</svg>
