<svg width="39" height="22" viewBox="0 0 39 22" fill="none" xmlns="http://www.w3.org/2000/svg">
<g clip-path="url(#clip0_80_652)">
<path d="M16.7533 12.3628L16.5257 4.09574C16.5257 3.83881 16.3132 3.64233 16.0704 3.64233C15.8124 3.64233 15.6152 3.83881 15.6152 4.09574L15.4027 12.3628L15.6152 16.3376C15.6152 16.5945 15.8276 16.791 16.0704 16.791C16.3284 16.791 16.5257 16.5945 16.5257 16.3376L16.7533 12.3628Z" fill="#FFF5D3"/>
<path d="M15.1143 12.3627L14.8564 3.77834C14.8564 3.53652 14.6591 3.35516 14.4315 3.35516C14.2038 3.35516 14.0066 3.53652 14.0066 3.77834L13.7789 12.3476L14.0066 16.3527C14.0066 16.5945 14.2038 16.7758 14.4315 16.7758C14.6591 16.7758 14.8564 16.5945 14.8564 16.3527L15.1143 12.3627Z" fill="#FFF5D3"/>
<path d="M11.5785 3.8388C11.5634 3.64232 11.4116 3.47607 11.2143 3.47607C11.0171 3.47607 10.8653 3.62721 10.8501 3.8388L10.5922 12.3476L10.8501 16.4131C10.8501 16.6096 11.0171 16.7607 11.2143 16.7607C11.4116 16.7607 11.5634 16.6096 11.5785 16.398L11.882 12.3325L11.5785 3.8388Z" fill="#FFF5D3"/>
<path d="M13.2175 3.55164C13.2175 3.34005 13.0354 3.15869 12.8229 3.15869C12.6104 3.15869 12.4283 3.32494 12.4283 3.55164L12.1855 12.3476L12.4283 16.3829C12.4283 16.5945 12.6104 16.7758 12.8229 16.7758C13.0354 16.7758 13.2023 16.6096 13.2175 16.3829L13.4906 12.3476L13.2175 3.55164Z" fill="#FFF5D3"/>
<path d="M4.94714 16.6701C5.06854 16.6701 5.15959 16.5794 5.17476 16.4434L5.56932 12.3476L5.17476 8.11589C5.15959 7.99498 5.06854 7.88919 4.94714 7.88919C4.82574 7.88919 4.73469 7.97987 4.71951 8.11589L4.37048 12.3476L4.71951 16.4434C4.71951 16.5794 4.82574 16.6701 4.94714 16.6701Z" fill="#FFF5D3"/>
<path d="M18.4073 12.3628L18.1949 2.53906C18.1949 2.37281 18.1038 2.22167 17.9673 2.13099C17.8914 2.08565 17.8003 2.04031 17.6941 2.04031C17.6031 2.04031 17.512 2.07054 17.421 2.11588C17.2844 2.20656 17.1933 2.35769 17.1933 2.52394V2.61462L17.0112 12.3476L17.1933 16.2922V16.3073C17.1933 16.4131 17.2389 16.5189 17.3147 16.5945C17.4058 16.7003 17.5424 16.7759 17.6941 16.7759C17.8307 16.7759 17.9521 16.7154 18.0431 16.6398C18.1342 16.5492 18.1949 16.4282 18.1949 16.2922L18.2101 15.8993L18.4073 12.3628Z" fill="#FFF5D3"/>
<path d="M6.75297 8.41815C6.73779 8.26702 6.63157 8.16122 6.49499 8.16122C6.35841 8.16122 6.23701 8.26702 6.23701 8.41815L5.91833 12.3476L6.23701 16.4736C6.25219 16.6247 6.35841 16.7305 6.49499 16.7305C6.63157 16.7305 6.75297 16.6247 6.75297 16.4736L7.11717 12.3476L6.75297 8.41815Z" fill="#FFF5D3"/>
<path d="M8.05802 5.66751C7.90626 5.66751 7.76969 5.78842 7.76969 5.95467L7.46619 12.3476L7.76969 16.4736C7.78486 16.6398 7.90626 16.7607 8.05802 16.7607C8.20977 16.7607 8.34634 16.6398 8.34634 16.4736L8.69537 12.3476L8.34634 5.95467C8.34634 5.80353 8.20977 5.66751 8.05802 5.66751Z" fill="#FFF5D3"/>
<path d="M9.93967 16.4736L10.2584 12.3627L9.93967 4.50378C9.9245 4.32242 9.78792 4.1864 9.60582 4.1864C9.42372 4.1864 9.28714 4.32242 9.27197 4.50378L8.98364 12.3627L9.27197 16.4736C9.27197 16.6549 9.42372 16.791 9.60582 16.791C9.78792 16.8061 9.9245 16.6549 9.93967 16.4736Z" fill="#FFF5D3"/>
<path d="M19.6062 1.19394C19.5303 1.1486 19.4393 1.11838 19.3331 1.11838C19.2117 1.11838 19.0903 1.16372 18.9992 1.23928C18.8778 1.32997 18.8019 1.4811 18.8019 1.64735V1.7078L18.5895 12.3778L18.6957 14.3426L18.8019 16.262C18.8019 16.5491 19.0447 16.7758 19.3331 16.7758C19.6214 16.7758 19.849 16.534 19.8642 16.2469L20.0918 12.3627L19.8642 1.64735C19.849 1.45087 19.758 1.28462 19.6062 1.19394Z" fill="#FFF5D3"/>
<path d="M0.440078 14.6146C0.515953 14.6146 0.576654 14.5542 0.591829 14.4635L0.925681 12.3476L0.591829 10.2015C0.576654 10.1108 0.515953 10.0504 0.440078 10.0504C0.364202 10.0504 0.288327 10.1108 0.288327 10.2015L0 12.3476L0.288327 14.4635C0.288327 14.5542 0.364202 14.6146 0.440078 14.6146Z" fill="#FFF5D3"/>
<path d="M1.88175 15.8993C1.95763 15.8993 2.0335 15.8388 2.04868 15.7481L2.48876 12.3476L2.04868 8.87156C2.0335 8.78088 1.9728 8.72043 1.88175 8.72043C1.80588 8.72043 1.73 8.78088 1.71483 8.87156L1.33545 12.3476L1.71483 15.7481C1.73 15.8388 1.7907 15.8993 1.88175 15.8993Z" fill="#FFF5D3"/>
<path d="M3.39925 16.5189C3.50547 16.5189 3.58135 16.4434 3.59652 16.3225L4.00625 12.3476L3.59652 8.22168C3.58135 8.11589 3.50547 8.02521 3.39925 8.02521C3.29302 8.02521 3.21715 8.10077 3.20197 8.22168L2.83777 12.3476L3.20197 16.3225C3.21715 16.4282 3.29302 16.5189 3.39925 16.5189Z" fill="#FFF5D3"/>
<path d="M34.0681 7.28465C33.4156 7.28465 32.7934 7.42067 32.2167 7.64737C31.8374 3.37028 28.2257 0 23.8249 0C22.7475 0 21.7004 0.211587 20.7747 0.574308C20.4105 0.710329 20.3195 0.861462 20.3195 1.1335V16.2318C20.3195 16.5189 20.5471 16.7456 20.8354 16.7758H34.0833C36.7237 16.7758 38.8634 14.6751 38.8634 12.0454C38.8483 9.41563 36.7086 7.28465 34.0681 7.28465Z" fill="#FFF5D3"/>
<path d="M3.80896 19.6474C3.24748 19.5114 3.09573 19.4509 3.09573 19.2242C3.09573 19.0731 3.21713 18.9068 3.59651 18.9068C3.91519 18.9068 4.17316 19.0428 4.40079 19.2695L4.91674 18.7708C4.58289 18.4232 4.17316 18.2116 3.62686 18.2116C2.92881 18.2116 2.36733 18.6046 2.36733 19.2393C2.36733 19.9345 2.82258 20.1461 3.47511 20.2821C4.14281 20.4333 4.26421 20.5391 4.26421 20.7658C4.26421 21.0378 4.06694 21.1436 3.64204 21.1436C3.30818 21.1436 2.98951 21.0227 2.73153 20.7355L2.21558 21.1889C2.48873 21.5819 3.00468 21.8237 3.58133 21.8237C4.55254 21.8237 4.96227 21.3703 4.96227 20.7053C4.99262 19.9648 4.37044 19.7683 3.80896 19.6474ZM7.07161 18.2267C6.1004 18.2267 5.53892 18.9673 5.53892 20.0403C5.53892 21.1134 6.11558 21.8539 7.07161 21.8539C8.02764 21.8539 8.60429 21.1134 8.60429 20.0403C8.60429 18.9673 8.02764 18.2267 7.07161 18.2267ZM7.07161 21.1436C6.49495 21.1436 6.26733 20.66 6.26733 20.0252C6.26733 19.3905 6.51013 18.9068 7.07161 18.9068C7.64826 18.9068 7.87589 19.3905 7.87589 20.0252C7.87589 20.66 7.63309 21.1436 7.07161 21.1436ZM11.4572 20.2519C11.4572 20.8111 11.1841 21.1587 10.7288 21.1587C10.2736 21.1587 10.0004 20.796 10.0004 20.2368V18.2721H9.28717V20.2519C9.28717 21.2796 9.86383 21.8539 10.7136 21.8539C11.609 21.8539 12.1401 21.2645 12.1401 20.2519V18.2872H11.4269V20.2519H11.4572ZM15.2055 19.7683C15.2055 19.9648 15.2206 20.403 15.2206 20.5391C15.1751 20.4484 15.0537 20.267 14.9778 20.1461L13.7183 18.2872H13.0354V21.8086H13.7335V20.2519C13.7335 20.0554 13.7183 19.6172 13.7183 19.4811C13.7638 19.5718 13.8852 19.7532 13.9611 19.8741L15.251 21.7935H15.8883V18.2721H15.1903V19.7683H15.2055ZM17.9218 18.2721H16.814V21.7935H17.8611C18.7716 21.7935 19.6669 21.2645 19.6669 20.0403C19.6669 18.7406 18.9234 18.2721 17.9218 18.2721ZM17.8611 21.1134H17.5121V18.9673H17.8915C18.635 18.9673 18.9537 19.33 18.9537 20.0403C18.9537 20.6751 18.6047 21.1134 17.8611 21.1134ZM21.8521 18.9219C22.1708 18.9219 22.3681 19.058 22.5047 19.2998L23.1572 18.9975C22.9296 18.5441 22.535 18.2116 21.8673 18.2116C20.9416 18.2116 20.3043 18.9522 20.3043 20.0252C20.3043 21.1285 20.9265 21.8388 21.8521 21.8388C22.4895 21.8388 22.9144 21.5366 23.1572 21.0378L22.5654 20.6902C22.3833 21.0076 22.186 21.1436 21.8673 21.1436C21.3362 21.1436 21.0327 20.66 21.0327 20.0252C21.0327 19.3753 21.3362 18.9219 21.8521 18.9219ZM24.4774 18.2721H23.7642V21.7935H25.8887V21.0983H24.4774V18.2721ZM27.7553 18.2267C26.7841 18.2267 26.2226 18.9673 26.2226 20.0403C26.2226 21.1134 26.7992 21.8539 27.7553 21.8539C28.7265 21.8539 29.2879 21.1134 29.2879 20.0403C29.2879 18.9673 28.7265 18.2267 27.7553 18.2267ZM27.7553 21.1436C27.1786 21.1436 26.951 20.66 26.951 20.0252C26.951 19.3905 27.1938 18.9068 27.7553 18.9068C28.3319 18.9068 28.5595 19.3905 28.5595 20.0252C28.5595 20.66 28.3319 21.1436 27.7553 21.1436ZM32.1409 20.2519C32.1409 20.8111 31.8677 21.1587 31.4125 21.1587C30.9572 21.1587 30.6841 20.796 30.6841 20.2368V18.2721H29.9708V20.2519C29.9708 21.2796 30.5475 21.8539 31.3973 21.8539C32.2926 21.8539 32.8237 21.2645 32.8237 20.2519V18.2872H32.1105V20.2519H32.1409ZM34.842 18.2721H33.7343V21.7935H34.7813C35.6918 21.7935 36.5872 21.2645 36.5872 20.0403C36.5872 18.7406 35.8436 18.2721 34.842 18.2721ZM34.7813 21.1134H34.4475V18.9673H34.8269C35.5704 18.9673 35.8739 19.33 35.8739 20.0403C35.8739 20.6751 35.5249 21.1134 34.7813 21.1134Z" fill="#FFF5D3"/>
</g>
<defs>
<clipPath id="clip0_80_652">
<rect width="39" height="22" fill="white"/>
</clipPath>
</defs>
</svg>
